<svg width="1000" height="612" viewBox="0 0 1000 612" fill="none" xmlns="http://www.w3.org/2000/svg">
<path fill-rule="evenodd" clip-rule="evenodd" d="M249.977 0.825195L0.525391 0.825195V611.058H999.892V191.08C990.246 226.747 980.959 258.552 972.074 286.334C957.297 332.504 943.586 367.891 930.155 394.48C920.093 414.418 889.44 475.116 825.664 481.367C787.755 485.081 752.468 471.435 728.831 443.923C716.573 429.655 709.016 413.716 704.659 397.214C703.696 399.003 702.722 400.793 701.755 402.572C701.172 403.643 700.591 404.711 700.016 405.772C630.533 532.523 579.364 585.414 517.529 594.417C479.429 599.966 443.312 587.162 418.406 559.312C378.78 514.978 380.687 451.19 395.75 369.08C406.662 309.552 425.197 238.836 444.821 163.967L445.056 163.071L445.178 162.606C459.566 107.747 474.35 51.3788 485.591 0.825195H472.19C439.418 42.7097 397.518 101.328 344.919 183.252C258.232 318.303 186.742 447.78 184.095 452.573L184.025 452.701C160.116 496.218 105.439 512.111 61.9066 488.189C18.3745 464.267 2.49602 409.602 26.4182 366.07C30.0001 359.536 115.631 204.09 217.323 49.5346C228.434 32.6473 239.321 16.4067 249.977 0.825195ZM669.411 0.825195C662.782 34.2135 654.185 70.989 644.063 111.519C651.412 95.5427 658.627 79.7115 665.667 64.264C666.945 61.4593 668.218 58.6673 669.484 55.8894L669.954 54.858C678.37 36.4041 686.638 18.2725 694.664 0.825195H669.411Z" fill="black"/>
</svg>
