<svg width="67" height="124" viewBox="0 0 67 124" fill="none" xmlns="http://www.w3.org/2000/svg">
<path fill-rule="evenodd" clip-rule="evenodd" d="M49.3051 107.623C55.3425 105.443 58.9752 100.391 61.2643 94.4327L61.2651 94.4274C63.094 89.6655 64.0631 84.3234 64.7148 79.4044C65.9505 70.0918 66.4672 57.7375 66.2546 42.6834C66.0167 25.8114 64.9335 9.44691 64.2196 0.222412H39.7323C40.3294 7.70855 41.349 22.1084 41.7372 37.3868C42.1371 53.1963 41.7146 64.0881 41.026 71.5328C38.0585 64.353 35.0075 55.7156 32.0502 47.3438L32.0285 47.2822L31.9866 47.1636C28.4866 37.2601 25.1807 27.9061 21.8711 20.3892C17.3072 10.02 12.6617 2.71074 4.83379 0.750632C3.524 0.423013 2.20623 0.275771 0.904785 0.302638V123.272H8.65804C9.45062 123.113 10.079 122.913 10.4875 122.764C13.7205 121.579 19.1613 118.144 19.2819 108.475C19.3097 106.246 19.1092 103.463 18.6522 99.7192C17.9004 93.5626 16.4993 85.3121 15.0147 76.5697L14.9889 76.4177C14.9194 76.0085 14.8495 75.5973 14.7792 75.1842C14.3932 72.9136 13.9975 70.5867 13.6058 68.2333C21.5114 89.8029 27.5331 102.54 36.8417 106.95C40.8342 108.842 45.2631 109.082 49.3051 107.623Z" fill="black"/>
</svg>
